<svg width="51" height="35" viewBox="0 0 51 35" fill="none" xmlns="http://www.w3.org/2000/svg">
<path d="M5.82743 0.9729C2.7632 0.9729 0.271877 3.46422 0.271877 6.52846V12.084C0.271877 12.8479 0.914238 13.4469 1.63472 13.6986C3.26667 14.2628 4.43854 15.8166 4.43854 17.6396C4.43854 19.4625 3.26667 21.0163 1.63472 21.5805C0.914238 21.8323 0.271877 22.4312 0.271877 23.1951V28.7507C0.271877 31.8149 2.7632 34.3062 5.82743 34.3062H44.7163C47.7806 34.3062 50.2719 31.8149 50.2719 28.7507V23.1951C50.2719 22.4312 49.6295 21.8323 48.909 21.5805C47.2771 21.0163 46.1052 19.4625 46.1052 17.6396C46.1052 15.8166 47.2771 14.2628 48.909 13.6986C49.6295 13.4469 50.2719 12.8479 50.2719 12.084V6.52846C50.2719 3.46422 47.7806 0.9729 44.7163 0.9729H5.82743ZM11.383 10.6951V24.584C11.383 25.3479 12.008 25.9729 12.7719 25.9729H37.7719C38.5358 25.9729 39.1608 25.3479 39.1608 24.584V10.6951C39.1608 9.93123 38.5358 9.30623 37.7719 9.30623H12.7719C12.008 9.30623 11.383 9.93123 11.383 10.6951ZM8.60521 9.30623C8.60521 7.76977 9.84653 6.52846 11.383 6.52846H39.1608C40.6972 6.52846 41.9385 7.76977 41.9385 9.30623V25.9729C41.9385 27.5094 40.6972 28.7507 39.1608 28.7507H11.383C9.84653 28.7507 8.60521 27.5094 8.60521 25.9729V9.30623Z" fill="url(#paint0_linear_67_466)"/>
<defs>
<linearGradient id="paint0_linear_67_466" x1="0.271877" y1="22.9173" x2="50.2887" y2="23.3175" gradientUnits="userSpaceOnUse">
<stop stop-color="#8CD9FF"/>
<stop offset="0.54" stop-color="#52B6FF"/>
<stop offset="1" stop-color="#3CA0E9"/>
</linearGradient>
</defs>
</svg>
