<svg width="15" height="12" viewBox="0 0 15 12" fill="none" xmlns="http://www.w3.org/2000/svg">
<path d="M0.909491 0.119661C0.665745 -0.0725232 0.311845 -0.0279928 0.119661 0.215753C-0.0725232 0.459499 -0.0279928 0.813399 0.215753 1.00558L14.0905 11.8804C14.3343 12.0726 14.6882 12.028 14.8803 11.7843C15.0725 11.5406 15.028 11.1867 14.7842 10.9945L12.3187 9.06325C13.2468 8.11171 13.8749 7.04532 14.1913 6.2883C14.2686 6.10315 14.2686 5.8969 14.1913 5.71175C13.8421 4.87505 13.1085 3.65632 12.0116 2.63915C10.9101 1.6126 9.39372 0.750119 7.5 0.750119C5.90159 0.750119 4.57036 1.36651 3.5321 2.17509L0.909491 0.119661ZM4.44849 2.89227C5.29691 2.28994 6.31643 1.8751 7.5 1.8751C9.0281 1.8751 10.2843 2.56884 11.2476 3.46179C12.1499 4.30084 12.7733 5.29691 13.0921 6.00003C12.7968 6.65626 12.2343 7.56562 11.4304 8.36483L10.1695 7.37578C10.3828 6.96329 10.5023 6.49689 10.5023 6.00003C10.5023 4.34302 9.15935 3.00008 7.50234 3.00008C6.74767 3.00008 6.05627 3.27898 5.52894 3.73835L4.44849 2.89227ZM9.25544 6.66095L7.34531 5.16332C7.44375 4.96411 7.5 4.73677 7.5 4.50005C7.5 4.37115 7.48359 4.24459 7.45312 4.12506C7.46953 4.12506 7.48359 4.12506 7.5 4.12506C8.53592 4.12506 9.37497 4.96411 9.37497 6.00003C9.37497 6.23205 9.33278 6.45471 9.25544 6.66095ZM9.47575 9.71481C8.8781 9.97027 8.21952 10.125 7.5 10.125C5.9719 10.125 4.71567 9.43122 3.75241 8.53826C2.85008 7.69922 2.22666 6.70314 1.90791 6.00003C2.10244 5.56878 2.41181 5.02739 2.83133 4.4813L1.94775 3.78522C1.41339 4.4813 1.03136 5.17504 0.808711 5.71175C0.731369 5.8969 0.731369 6.10315 0.808711 6.2883C1.15792 7.12501 1.8915 8.34374 2.98836 9.3609C4.0899 10.3874 5.60628 11.2499 7.5 11.2499C8.62029 11.2499 9.60699 10.9476 10.4578 10.4882L9.47575 9.71481ZM4.50005 6.00003C4.50005 7.65703 5.843 8.99997 7.5 8.99997C7.81171 8.99997 8.11171 8.9531 8.3953 8.86404L7.07813 7.82812C6.52736 7.70156 6.06799 7.33125 5.81956 6.83673L4.50474 5.80081C4.50005 5.86644 4.49771 5.93206 4.49771 6.00003H4.50005Z" fill="#9C9C9C"/>
</svg>
