<svg width="31" height="32" viewBox="0 0 31 32" fill="none" xmlns="http://www.w3.org/2000/svg">
<path d="M30.3155 16.0777C30.3155 24.311 23.6411 30.9855 15.4078 30.9855C7.17444 30.9855 0.5 24.311 0.5 16.0777C0.5 7.84436 7.17444 1.16992 15.4078 1.16992C23.6411 1.16992 30.3155 7.84436 30.3155 16.0777Z" stroke="white"/>
<path d="M19.1544 7.15731V9.59537H17.4157C17.1605 9.59537 16.8124 9.65755 16.5191 9.8982C16.2069 10.1543 16.0321 10.5498 16.0321 11.0602V13.1435V13.6435H16.5321H19.091L18.83 16.18H16.5318H16.0318V16.68V26.2523H12.8664V16.68V16.18H12.3664H10.8853V13.6402H12.3664H12.8664V13.1402V10.8496C12.8664 10.0955 13.0477 9.16186 13.5862 8.43011C14.1054 7.72456 14.9994 7.14674 16.5679 7.14648C16.5682 7.14648 16.5686 7.14648 16.5689 7.14648L19.1544 7.15731Z" fill="white" stroke="white"/>
</svg>
