<svg width="15" height="15" viewBox="0 0 15 15" fill="none" xmlns="http://www.w3.org/2000/svg">
<path d="M14.5561 2.53258C15.1417 1.95357 15.1417 1.01326 14.5561 0.434256C13.9704 -0.144752 13.0193 -0.144752 12.4336 0.434256L7.5 5.31645L2.56169 0.438888C1.97603 -0.14012 1.02491 -0.14012 0.439247 0.438888C-0.146416 1.0179 -0.146416 1.9582 0.439247 2.53721L5.37756 7.41477L0.443933 12.297C-0.14173 12.876 -0.14173 13.8163 0.443933 14.3953C1.0296 14.9743 1.98071 14.9743 2.56638 14.3953L7.5 9.51309L12.4383 14.3907C13.024 14.9697 13.9751 14.9697 14.5608 14.3907C15.1464 13.8116 15.1464 12.8713 14.5608 12.2923L9.62244 7.41477L14.5561 2.53258Z" fill="white"/>
</svg>
