<svg width="20" height="20" viewBox="0 0 20 20" fill="none" xmlns="http://www.w3.org/2000/svg">
<path d="M1.19066 0.726562C0.938075 0.726563 0.695833 0.826902 0.517227 1.00551C0.338621 1.18411 0.238281 1.42636 0.238281 1.67894V3.58371C0.238148 3.82563 0.330084 4.05853 0.495424 4.23513L7.38114 11.5789V18.8218C7.38123 18.9841 7.42278 19.1436 7.50185 19.2854C7.58092 19.4271 7.69489 19.5462 7.83294 19.6315C7.971 19.7168 8.12856 19.7654 8.29067 19.7727C8.45278 19.78 8.61407 19.7458 8.75923 19.6732L11.6164 18.2447C11.7745 18.1656 11.9076 18.0441 12.0006 17.8937C12.0936 17.7434 12.1429 17.57 12.143 17.3932V11.5789L19.0288 4.23513C19.1941 4.05853 19.286 3.82563 19.2859 3.58371V1.67894C19.2859 1.42636 19.1856 1.18411 19.007 1.00551C18.8283 0.826902 18.5861 0.726563 18.3335 0.726562H1.19066Z" fill="white"/>
</svg>
