<svg width="88" height="70" viewBox="0 0 88 70" fill="none" xmlns="http://www.w3.org/2000/svg">
<path d="M44.0001 0.875C31.6556 0.875 21.7709 6.48125 14.5751 13.1539C7.42509 19.7656 2.64314 27.6875 0.382031 33.1262C-0.122135 34.3297 -0.122135 35.6703 0.382031 36.8738C2.64314 42.3125 7.42509 50.2344 14.5751 56.8461C21.7709 63.5187 31.6556 69.125 44.0001 69.125C56.3445 69.125 66.2293 63.5187 73.4251 56.8461C80.5751 50.2191 85.357 42.3125 87.6334 36.8738C88.1376 35.6703 88.1376 34.3297 87.6334 33.1262C85.357 27.6875 80.5751 19.7656 73.4251 13.1539C66.2293 6.48125 56.3445 0.875 44.0001 0.875ZM22.0001 35C22.0001 29.1818 24.3179 23.6019 28.4437 19.4878C32.5695 15.3738 38.1653 13.0625 44.0001 13.0625C49.8348 13.0625 55.4306 15.3738 59.5564 19.4878C63.6822 23.6019 66.0001 29.1818 66.0001 35C66.0001 40.8182 63.6822 46.3981 59.5564 50.5122C55.4306 54.6262 49.8348 56.9375 44.0001 56.9375C38.1653 56.9375 32.5695 54.6262 28.4437 50.5122C24.3179 46.3981 22.0001 40.8182 22.0001 35ZM44.0001 25.25C44.0001 30.6277 39.6154 35 34.2223 35C33.1376 35 32.0987 34.8172 31.1209 34.4973C30.2806 34.223 29.3029 34.741 29.3334 35.6246C29.3793 36.6758 29.532 37.727 29.8223 38.7781C31.9154 46.5781 39.9668 51.2094 47.789 49.1223C55.6112 47.0352 60.2556 39.0066 58.1626 31.2066C56.4668 24.8844 50.8598 20.634 44.6265 20.375C43.7404 20.3445 43.2209 21.3043 43.4959 22.1574C43.8168 23.1324 44.0001 24.1684 44.0001 25.25Z" fill="#9C9C9C"/>
</svg>
