<svg width="31" height="31" viewBox="0 0 31 31" fill="none" xmlns="http://www.w3.org/2000/svg">
<path d="M30.5001 15.4078C30.5001 23.6411 23.8257 30.3155 15.5923 30.3155C7.35901 30.3155 0.68457 23.6411 0.68457 15.4078C0.68457 7.17444 7.35901 0.5 15.5923 0.5C23.8257 0.5 30.5001 7.17444 30.5001 15.4078Z" stroke="white"/>
<path d="M5.54882 16.1C5.49417 18.751 7.32009 21.2808 9.83184 22.1059C12.1977 22.9008 15.1066 22.3061 16.681 20.28C17.8304 18.8603 18.0916 16.9676 17.9672 15.1993C15.9411 15.1812 13.9149 15.1873 11.8918 15.1903C11.8885 15.9121 11.8918 16.6311 11.8948 17.3529C13.108 17.3864 14.3214 17.3711 15.5346 17.3955C15.2283 18.445 14.5307 19.4217 13.4719 19.8007C11.4276 20.7016 8.81918 19.5247 8.17593 17.3801C7.39947 15.3265 8.67059 12.8483 10.7692 12.2509C12.0706 11.793 13.4112 12.3086 14.5246 12.9851C15.0888 12.4572 15.6167 11.893 16.1352 11.3228C14.8702 10.2643 13.2445 9.61527 11.5732 9.75782C8.29403 9.79682 5.4244 12.8241 5.54882 16.1Z" fill="#DC4E41"/>
<path d="M21.9105 13.3672C21.9045 13.9709 21.8982 14.5776 21.8951 15.181C21.2884 15.1871 20.685 15.1901 20.0813 15.1931C20.0813 15.7968 20.0813 16.3972 20.0813 17.0009C20.685 17.0039 21.2917 17.007 21.8951 17.0133C21.9012 17.617 21.9012 18.2204 21.9072 18.8271C22.5079 18.8271 23.1116 18.8241 23.715 18.8271C23.7183 18.2204 23.7211 17.617 23.7274 17.0103C24.3308 17.0072 24.9375 17.0042 25.5412 17.0012C25.5412 16.3975 25.5412 15.7971 25.5412 15.1934C24.9378 15.1904 24.3311 15.1873 23.7274 15.1813C23.7241 14.5776 23.7183 13.9709 23.715 13.3675C23.1116 13.3672 22.5109 13.3672 21.9105 13.3672Z" fill="#DC4E41"/>
<path d="M5.54882 16.0983C5.4244 12.8224 8.29376 9.79515 11.5729 9.75587C13.2442 9.61332 14.8702 10.2623 16.135 11.3209C15.6161 11.8913 15.0882 12.4552 14.5244 12.9831C13.4109 12.3066 12.0703 11.7911 10.769 12.2489C8.67004 12.8466 7.39892 15.3248 8.17565 17.3782C8.8189 19.5227 11.4273 20.6996 13.4716 19.7987C14.5301 19.4197 15.228 18.443 15.5343 17.3936C14.3211 17.3694 13.1077 17.3845 11.8945 17.351C11.8915 16.6292 11.8885 15.9101 11.8915 15.1883C13.9146 15.1853 15.9408 15.1793 17.9669 15.1974C18.0914 16.9659 17.8304 18.8586 16.6807 20.278C15.1064 22.3042 12.1977 22.8988 9.83157 22.1039C7.32037 21.2791 5.49417 18.7493 5.54882 16.0983Z" fill="white"/>
<path d="M21.9105 13.3672C22.5112 13.3672 23.1116 13.3672 23.715 13.3672C23.7183 13.9709 23.7241 14.5776 23.7274 15.181C24.3308 15.1871 24.9375 15.1901 25.5412 15.1931C25.5412 15.7968 25.5412 16.3972 25.5412 17.0009C24.9378 17.0039 24.3311 17.007 23.7274 17.01C23.7213 17.6167 23.7183 18.2201 23.715 18.8268C23.1116 18.8238 22.5076 18.8268 21.9072 18.8268C21.9015 18.2201 21.9015 17.6167 21.8951 17.013C21.2917 17.0067 20.685 17.0039 20.0813 17.0006C20.0813 16.3969 20.0813 15.7965 20.0813 15.1928C20.685 15.1898 21.2887 15.1868 21.8951 15.1808C21.8982 14.5776 21.9042 13.9709 21.9105 13.3672Z" fill="white"/>
</svg>
