<svg width="18" height="14" viewBox="0 0 18 14" fill="none" xmlns="http://www.w3.org/2000/svg">
<path d="M14.8176 6.99961C14.8175 6.53577 14.9563 6.08321 15.2151 5.70386C15.474 5.32451 15.8401 5.0369 16.2635 4.88037C16.6535 4.73651 16.9985 4.40316 16.9985 3.97544V1.77345C16.9985 1.56831 16.9195 1.37159 16.7788 1.22654C16.6382 1.08149 16.4474 1 16.2485 1H1.74998C1.55107 1 1.36031 1.08149 1.21966 1.22654C1.07902 1.37159 1 1.56831 1 1.77345V3.97699C1 4.40393 1.34574 4.73729 1.73573 4.88192C2.15888 5.03851 2.52481 5.32605 2.78351 5.70524C3.04221 6.08442 3.18105 6.53675 3.18105 7.00039C3.18105 7.46403 3.04221 7.91635 2.78351 8.29554C2.52481 8.67472 2.15888 8.96226 1.73573 9.11885C1.34574 9.26349 1.00075 9.59684 1.00075 10.0238V12.2266C1.00075 12.4317 1.07977 12.6284 1.22041 12.7735C1.36106 12.9185 1.55182 13 1.75073 13H16.25C16.4489 13 16.6397 12.9185 16.7803 12.7735C16.921 12.6284 17 12.4317 17 12.2266V10.0238C17 9.59684 16.6543 9.26349 16.2643 9.11885C15.8407 8.96245 15.4744 8.67489 15.2155 8.29554C14.9565 7.91618 14.8175 7.46355 14.8176 6.99961Z" stroke="white" stroke-width="2" stroke-miterlimit="10" stroke-linecap="round" stroke-linejoin="round"/>
<path d="M6 6H12M6 9H12" stroke="white" stroke-miterlimit="10" stroke-linecap="round" stroke-linejoin="round"/>
</svg>
