<svg width="16" height="19" viewBox="0 0 16 19" fill="none" xmlns="http://www.w3.org/2000/svg">
<path d="M7.12389 0.55028C6.97763 0.601898 6.60769 0.954634 5.23117 2.34406C4.28481 3.29472 2.75773 4.83901 1.83287 5.77247C0.903721 6.70592 0.11222 7.53614 0.0735049 7.61357C-0.034036 7.82865 -0.0211311 8.24161 0.0950131 8.51691C0.340206 9.08903 1.07148 9.37294 1.60919 9.10623C1.68662 9.06322 2.79214 7.99641 4.06542 6.72743L6.3754 4.41745V11.214C6.3754 15.7092 6.39261 18.0622 6.41842 18.1698C6.49585 18.4408 6.71953 18.7247 6.97763 18.8666C7.18411 18.9828 7.25724 19 7.53685 19C7.81645 19 7.88958 18.9828 8.09606 18.8666C8.34986 18.7204 8.57784 18.4365 8.65527 18.1698C8.68108 18.0622 8.69829 15.7135 8.69829 11.214V4.41745L11.0771 6.79195C12.8881 8.60725 13.4989 9.18797 13.6452 9.25249C14.0538 9.43746 14.6518 9.32992 14.9443 9.0159C15.2325 8.70618 15.3228 8.18138 15.1464 7.79424C15.0819 7.64798 14.6044 7.14039 13.2451 5.77247C12.2471 4.76588 10.6856 3.19579 9.7823 2.27954C8.35416 0.83849 8.10896 0.606201 7.9369 0.55028C7.6917 0.464247 7.36048 0.468548 7.12389 0.55028Z" fill="white"/>
</svg>
