<svg width="18" height="18" viewBox="0 0 18 18" fill="none" xmlns="http://www.w3.org/2000/svg">
<path d="M1.00237 16.9962C0.889349 16.8819 0.809999 16.738 0.773179 16.5807C0.736359 16.4234 0.743519 16.2589 0.793849 16.1054L2.60141 10.6271C2.6504 10.4791 2.7377 10.3471 2.85425 10.2447C2.9708 10.1424 3.11234 10.0735 3.26415 10.0452L10.1297 9L3.26531 7.9537C3.11361 7.9255 2.97216 7.8567 2.85569 7.7544C2.73923 7.6522 2.65203 7.5203 2.60316 7.3724L0.794429 1.89282C0.741969 1.73202 0.737049 1.55925 0.780269 1.39567C0.823499 1.23209 0.912979 1.08481 1.03777 0.971869C1.16256 0.858939 1.31722 0.785249 1.48282 0.759849C1.64841 0.734449 1.81773 0.758429 1.97004 0.828859L17.4996 8.2106C17.649 8.2801 17.7755 8.3914 17.8642 8.5314C17.9529 8.6714 18 8.8341 18 9.0003C18 9.1665 17.9529 9.3293 17.8642 9.4693C17.7755 9.6092 17.649 9.7206 17.4996 9.7901L1.97004 17.17C1.81765 17.2411 1.64799 17.2656 1.482 17.2403C1.31602 17.2151 1.16099 17.1412 1.03606 17.0279L1.00237 16.9962Z" fill="#999999"/>
</svg>
