<svg width="17" height="15" viewBox="0 0 17 15" fill="none" xmlns="http://www.w3.org/2000/svg">
<path fill-rule="evenodd" clip-rule="evenodd" d="M5.3328 0.146484C5.77099 0.146484 6.12486 0.47111 6.12486 0.87065V1.59482H10.8749V0.87065C10.8749 0.775551 10.8953 0.681384 10.9352 0.593524C10.975 0.505664 11.0333 0.425833 11.1069 0.358588C11.1804 0.291343 11.2677 0.238001 11.3638 0.201608C11.4599 0.165216 11.5629 0.146484 11.6669 0.146484C11.7709 0.146484 11.8739 0.165216 11.97 0.201608C12.0661 0.238001 12.1534 0.291343 12.227 0.358588C12.3005 0.425833 12.3589 0.505664 12.3987 0.593524C12.4385 0.681384 12.459 0.775551 12.459 0.87065V1.59482H13.2499C14.0896 1.59482 14.895 1.89974 15.4889 2.44253C16.0828 2.98532 16.4166 3.72154 16.4169 4.48931V13.175C16.4169 13.9751 15.708 14.6233 14.834 14.6233H2.16692C1.95895 14.6233 1.75301 14.5858 1.56088 14.513C1.36876 14.4402 1.1942 14.3335 1.0472 14.199C0.900192 14.0645 0.783618 13.9048 0.704138 13.7291C0.624658 13.5534 0.583829 13.3651 0.583985 13.175V4.48931C0.5843 3.72173 0.917947 2.98567 1.5116 2.44291C2.10524 1.90015 2.91031 1.5951 3.74986 1.59482H4.54192V0.87065C4.54192 0.47111 4.89461 0.146484 5.3328 0.146484ZM10.8749 3.04206V3.76623C10.8749 3.86133 10.8953 3.95549 10.9352 4.04335C10.975 4.13121 11.0333 4.21105 11.1069 4.27829C11.1804 4.34554 11.2677 4.39888 11.3638 4.43527C11.4599 4.47166 11.5629 4.49039 11.6669 4.49039C11.7709 4.49039 11.8739 4.47166 11.97 4.43527C12.0661 4.39888 12.1534 4.34554 12.227 4.27829C12.3005 4.21105 12.3589 4.13121 12.3987 4.04335C12.4385 3.95549 12.459 3.86133 12.459 3.76623V3.04206H13.2499C14.1239 3.04206 14.834 3.69023 14.834 4.48931V5.93764H2.16692V4.48931C2.16692 3.69023 2.87586 3.04206 3.74986 3.04206H4.54192V3.76623C4.54985 3.95329 4.6367 4.13029 4.78427 4.26007C4.93183 4.38986 5.12863 4.46236 5.33339 4.46236C5.53815 4.46236 5.73495 4.38986 5.88252 4.26007C6.03008 4.13029 6.11693 3.95329 6.12486 3.76623V3.04206H10.8749ZM2.16692 7.38488H14.8328V13.175H2.16811L2.16692 7.38488Z" fill="white"/>
</svg>
