<svg width="271" height="76" viewBox="0 0 271 76" fill="none" xmlns="http://www.w3.org/2000/svg">
<g clip-path="url(#clip0_2_516)">
<g clip-path="url(#clip1_2_516)">
<path d="M211.754 35.4679C209.267 37.2576 208.7 40.7349 210.49 43.2221L213.734 47.7316C214.181 48.3517 215.052 48.4627 215.784 48.2462C217.438 47.7511 219.297 48.3279 220.361 49.8076C221.426 51.2872 221.382 53.2329 220.387 54.6441C219.949 55.2692 219.778 56.1306 220.224 56.7506L223.469 61.2601C225.258 63.7474 228.736 64.3146 231.223 62.5249L262.789 39.8114C265.277 38.0217 265.844 34.5444 264.054 32.0571L260.809 27.5476C260.363 26.9275 259.492 26.8165 258.76 27.033C257.106 27.5282 255.247 26.9514 254.182 25.4717C253.118 23.992 253.162 22.0463 254.157 20.6352C254.594 20.01 254.766 19.1487 254.32 18.5286L251.075 14.0191C249.285 11.5318 245.808 10.9647 243.321 12.7544L211.754 35.4679ZM221.942 40.1147L230.054 51.3885C230.5 52.0085 231.373 52.1508 231.993 51.7046L252.285 37.1031C252.905 36.6569 253.048 35.7846 252.602 35.1645L244.49 23.8908C244.043 23.2707 243.171 23.1285 242.551 23.5746L222.258 38.1761C221.638 38.6223 221.496 39.4946 221.942 40.1147ZM218.876 40.6097C217.979 39.3626 218.261 37.63 219.509 36.7326L242.056 20.5087C243.303 19.6113 245.036 19.8939 245.933 21.141L255.668 34.6695C256.565 35.9167 256.282 37.6493 255.035 38.5467L232.488 54.7706C231.241 55.668 229.508 55.3854 228.611 54.1382L218.876 40.6097Z" fill="url(#paint0_linear_2_516)"/>
</g>
<path d="M3.22266 34.8442C3.22266 33.2866 3.77767 31.9528 4.8877 30.8428C5.99772 29.7327 7.34049 29.1777 8.91602 29.1777H17.4023C19.694 29.1777 21.5739 29.8939 23.042 31.3262C24.4743 29.8939 26.3542 29.1777 28.6816 29.1777H32.8711C34.7152 29.1777 36.3981 29.6343 37.9199 30.5474C39.4417 31.4425 40.6502 32.651 41.5454 34.1729C42.4585 35.6768 42.915 37.3507 42.915 39.1948V57H37.2754V39.2754C37.2754 38.04 36.8457 36.9927 35.9863 36.1333C35.127 35.256 34.0885 34.8174 32.8711 34.8174H28.6816C27.8939 34.8174 27.2225 35.068 26.6675 35.5693C26.1125 36.0527 25.835 36.6436 25.835 37.3418V57H20.1685V37.3418C20.1685 36.6436 19.8999 36.0527 19.3628 35.5693C18.8257 35.068 18.1722 34.8174 17.4023 34.8174H8.88916V57H3.22266V34.8442ZM53.2275 29.1777L60.4517 48.46L67.8369 29.1777H74.0942L59.3237 67.4736H53.1201L57.4438 56.0869L47.2119 29.1777H53.2275ZM77.6123 29.1777H81.2378V18.8115H86.9043V29.1777H95.4712V34.8442H86.9043V49.1045C86.9043 49.7132 87.137 50.2414 87.6025 50.689C88.0859 51.1187 88.6589 51.3335 89.3213 51.3335H95.4712V57H89.2407C87.7726 57 86.4299 56.6509 85.2124 55.9526C84.0129 55.2365 83.0461 54.2876 82.312 53.106C81.5959 51.9064 81.2378 50.5815 81.2378 49.1313V34.8442H77.6123V29.1777ZM99.9561 21.6045C99.9561 20.6377 100.296 19.8141 100.977 19.1338C101.657 18.4535 102.48 18.1133 103.447 18.1133C104.414 18.1133 105.238 18.4535 105.918 19.1338C106.598 19.8141 106.938 20.6377 106.938 21.6045C106.938 22.5713 106.598 23.3949 105.918 24.0752C105.238 24.7555 104.414 25.0957 103.447 25.0957C102.48 25.0957 101.657 24.7555 100.977 24.0752C100.296 23.3949 99.9561 22.5713 99.9561 21.6045ZM100.601 29.1777H106.294V57H100.601V29.1777ZM112.471 39.2217C112.471 37.3776 112.936 35.6947 113.867 34.1729C114.798 32.651 116.042 31.4425 117.6 30.5474C119.158 29.6343 120.885 29.1777 122.783 29.1777H138.44V34.8442H122.783C121.512 34.8442 120.42 35.2829 119.507 36.1602C118.594 37.0195 118.137 38.0669 118.137 39.3022V46.8486C118.137 48.084 118.585 49.1403 119.48 50.0176C120.393 50.8949 121.494 51.3335 122.783 51.3335H138.44V57H122.783C120.885 57 119.158 56.5435 117.6 55.6304C116.042 54.7173 114.798 53.4998 113.867 51.978C112.936 50.4383 112.471 48.7464 112.471 46.9023V39.2217ZM144.644 18.8115H150.31V39.8394H152.217L162.288 29.1777H169.646L156.943 42.6592L170.774 57H162.852L151.707 45.5059H150.31V57H144.644V18.8115ZM173.755 34.9248C173.755 33.3314 174.337 31.9797 175.5 30.8696C176.664 29.7417 178.061 29.1777 179.69 29.1777H191.292C192.778 29.1777 194.12 29.5448 195.32 30.2788C196.537 30.995 197.504 31.9707 198.22 33.2061C198.954 34.4235 199.321 35.7752 199.321 37.2612V38.04C199.321 39.5081 198.954 40.8509 198.22 42.0684C197.504 43.2679 196.537 44.2347 195.32 44.9688C194.12 45.6849 192.778 46.043 191.292 46.043H182.644V40.4033H191.345C191.99 40.4033 192.536 40.1706 192.983 39.7051C193.449 39.2396 193.682 38.6756 193.682 38.0132V37.2612C193.682 36.5809 193.449 36.008 192.983 35.5425C192.536 35.077 191.99 34.8442 191.345 34.8442H179.421V49.1313C179.421 49.7401 179.627 50.2593 180.039 50.689C180.451 51.1187 180.952 51.3335 181.543 51.3335H197.361V57H181.543C180.111 57 178.804 56.6509 177.622 55.9526C176.44 55.2365 175.5 54.2876 174.802 53.106C174.104 51.9064 173.755 50.5905 173.755 49.1582V34.9248ZM204.155 29.1777H207.781V18.8115H213.447V29.1777H222.014V34.8442H213.447V49.1045C213.447 49.7132 213.68 50.2414 214.146 50.689C214.629 51.1187 215.202 51.3335 215.864 51.3335H222.014V57H215.784C214.316 57 212.973 56.6509 211.755 55.9526C210.556 55.2365 209.589 54.2876 208.855 53.106C208.139 51.9064 207.781 50.5815 207.781 49.1313V34.8442H204.155V29.1777Z" fill="white"/>
</g>
<defs>
<linearGradient id="paint0_linear_2_516" x1="220.062" y1="56.5252" x2="260.895" y2="27.6371" gradientUnits="userSpaceOnUse">
<stop stop-color="#8CD9FF"/>
<stop offset="0.54" stop-color="#52B6FF"/>
<stop offset="1" stop-color="#3CA0E9"/>
</linearGradient>
<clipPath id="clip0_2_516">
<rect width="271" height="76" fill="white"/>
</clipPath>
<clipPath id="clip1_2_516">
<rect width="50" height="44.4444" fill="white" transform="translate(204 34.2031) rotate(-35.7367)"/>
</clipPath>
</defs>
</svg>
