<svg width="30" height="30" viewBox="0 0 30 30" fill="none" xmlns="http://www.w3.org/2000/svg">
<rect x="1" y="1" width="28" height="28" rx="4" stroke="white" stroke-width="2" stroke-dasharray="4 4"/>
<path fill-rule="evenodd" clip-rule="evenodd" d="M14.2645 21.0425C14.2645 21.2672 14.3538 21.4827 14.5127 21.6416C14.6715 21.8005 14.887 21.8898 15.1117 21.8898C15.3364 21.8898 15.5519 21.8005 15.7108 21.6416C15.8697 21.4827 15.959 21.2672 15.959 21.0425V15.9591H21.0423C21.267 15.9591 21.4825 15.8698 21.6413 15.711C21.8002 15.5521 21.8895 15.3366 21.8895 15.1119C21.8895 14.8872 21.8002 14.6717 21.6413 14.5128C21.4825 14.3539 21.267 14.2646 21.0423 14.2646H15.959V9.18122C15.959 8.95652 15.8697 8.74102 15.7108 8.58213C15.5519 8.42325 15.3364 8.33398 15.1117 8.33398C14.887 8.33398 14.6715 8.42325 14.5127 8.58213C14.3538 8.74102 14.2645 8.95652 14.2645 9.18122V14.2646H9.1812C8.95651 14.2646 8.74101 14.3539 8.58213 14.5128C8.42324 14.6717 8.33398 14.8872 8.33398 15.1119C8.33398 15.3366 8.42324 15.5521 8.58213 15.711C8.74101 15.8698 8.95651 15.9591 9.1812 15.9591H14.2645V21.0425Z" fill="white" stroke="white" stroke-width="0.88"/>
</svg>
