<svg width="30" height="30" viewBox="0 0 30 30" fill="none" xmlns="http://www.w3.org/2000/svg">
<rect width="30" height="30" rx="5" fill="#D9D9D9"/>
<path d="M5.24935 24.8328H24.7493C25.0367 24.8328 25.3122 24.7187 25.5154 24.5155C25.7185 24.3124 25.8327 24.0368 25.8327 23.7495V19.4162C25.8327 19.1288 25.7185 18.8533 25.5154 18.6501C25.3122 18.447 25.0367 18.3328 24.7493 18.3328H23.666V12.9162H24.7493C25.0367 12.9162 25.3122 12.802 25.5154 12.5989C25.7185 12.3957 25.8327 12.1201 25.8327 11.8328V8.58282C25.8327 8.37321 25.7719 8.1681 25.6577 7.99235C25.5435 7.8166 25.3807 7.67775 25.1892 7.59265L15.4392 3.25932C15.3007 3.1978 15.1509 3.16602 14.9993 3.16602C14.8478 3.16602 14.698 3.1978 14.5595 3.25932L4.80952 7.59265C4.61796 7.67775 4.45521 7.8166 4.34099 7.99235C4.22677 8.1681 4.16599 8.37321 4.16602 8.58282V11.8328C4.16602 12.1201 4.28015 12.3957 4.48332 12.5989C4.68648 12.802 4.96203 12.9162 5.24935 12.9162H6.33268V18.3328H5.24935C4.96203 18.3328 4.68648 18.447 4.48332 18.6501C4.28015 18.8533 4.16602 19.1288 4.16602 19.4162V23.7495C4.16602 24.0368 4.28015 24.3124 4.48332 24.5155C4.68648 24.7187 4.96203 24.8328 5.24935 24.8328ZM6.33268 9.28699L14.9993 5.43465L23.666 9.28699V10.7495H6.33268V9.28699ZM21.4993 12.9162V18.3328H18.6101V12.9162H21.4993ZM16.4434 12.9162V18.3328H13.5553V12.9162H16.4434ZM11.3886 12.9162V18.3328H8.49935V12.9162H11.3886ZM6.33268 20.4995H23.666V22.6662H6.33268V20.4995ZM17.166 8.58282C17.166 8.87014 17.0519 9.14569 16.8487 9.34885C16.6455 9.55202 16.37 9.66615 16.0827 9.66615H13.916C13.6287 9.66615 13.3531 9.55202 13.15 9.34885C12.9468 9.14569 12.8327 8.87014 12.8327 8.58282C12.8327 8.2955 12.9468 8.01995 13.15 7.81679C13.3531 7.61362 13.6287 7.49949 13.916 7.49949H16.0827C16.37 7.49949 16.6455 7.61362 16.8487 7.81679C17.0519 8.01995 17.166 8.2955 17.166 8.58282Z" fill="black"/>
</svg>
