<svg width="19" height="21" viewBox="0 0 19 21" fill="none" xmlns="http://www.w3.org/2000/svg">
<path d="M5.20986 0.8125C5.93029 0.8125 6.51233 1.37402 6.51233 2.06904V3.32558H11.7222V2.06904C11.7222 1.37402 12.3042 0.8125 13.0247 0.8125C13.7451 0.8125 14.3271 1.37402 14.3271 2.06904V3.32558H16.2808C17.3594 3.32558 18.2345 4.16981 18.2345 5.21038V7.09519H0V5.21038C0 4.16981 0.875094 3.32558 1.9537 3.32558H3.9074V2.06904C3.9074 1.37402 4.48944 0.8125 5.20986 0.8125ZM0 8.35173H18.2345V19.0323C18.2345 20.0729 17.3594 20.9171 16.2808 20.9171H1.9537C0.875094 20.9171 0 20.0729 0 19.0323V8.35173ZM2.60493 11.4931V12.7496C2.60493 13.0952 2.89799 13.3779 3.25616 13.3779H4.55863C4.91681 13.3779 5.20986 13.0952 5.20986 12.7496V11.4931C5.20986 11.1475 4.91681 10.8648 4.55863 10.8648H3.25616C2.89799 10.8648 2.60493 11.1475 2.60493 11.4931ZM7.81479 11.4931V12.7496C7.81479 13.0952 8.10785 13.3779 8.46603 13.3779H9.76849C10.1267 13.3779 10.4197 13.0952 10.4197 12.7496V11.4931C10.4197 11.1475 10.1267 10.8648 9.76849 10.8648H8.46603C8.10785 10.8648 7.81479 11.1475 7.81479 11.4931ZM13.6759 10.8648C13.3177 10.8648 13.0247 11.1475 13.0247 11.4931V12.7496C13.0247 13.0952 13.3177 13.3779 13.6759 13.3779H14.9784C15.3365 13.3779 15.6296 13.0952 15.6296 12.7496V11.4931C15.6296 11.1475 15.3365 10.8648 14.9784 10.8648H13.6759ZM2.60493 16.5192V17.7758C2.60493 18.1213 2.89799 18.404 3.25616 18.404H4.55863C4.91681 18.404 5.20986 18.1213 5.20986 17.7758V16.5192C5.20986 16.1737 4.91681 15.891 4.55863 15.891H3.25616C2.89799 15.891 2.60493 16.1737 2.60493 16.5192ZM8.46603 15.891C8.10785 15.891 7.81479 16.1737 7.81479 16.5192V17.7758C7.81479 18.1213 8.10785 18.404 8.46603 18.404H9.76849C10.1267 18.404 10.4197 18.1213 10.4197 17.7758V16.5192C10.4197 16.1737 10.1267 15.891 9.76849 15.891H8.46603ZM13.0247 16.5192V17.7758C13.0247 18.1213 13.3177 18.404 13.6759 18.404H14.9784C15.3365 18.404 15.6296 18.1213 15.6296 17.7758V16.5192C15.6296 16.1737 15.3365 15.891 14.9784 15.891H13.6759C13.3177 15.891 13.0247 16.1737 13.0247 16.5192Z" fill="white"/>
</svg>
