<svg width="28" height="28" viewBox="0 0 28 28" fill="none" xmlns="http://www.w3.org/2000/svg">
<circle cx="13.9999" cy="13.9999" r="11.2069" fill="white"/>
<path d="M14 25.375C7.7175 25.375 2.625 20.2825 2.625 14C2.625 7.7175 7.7175 2.625 14 2.625C20.2825 2.625 25.375 7.7175 25.375 14C25.375 20.2825 20.2825 25.375 14 25.375ZM19.2159 10.6829C19.4294 10.4694 19.4294 10.122 19.2159 9.9085L18.0539 8.74737C17.8404 8.53387 17.493 8.53387 17.2795 8.74737L13.9886 12.0382L10.6978 8.74737C10.4843 8.53387 10.1369 8.53387 9.92337 8.74737L8.76137 9.9085C8.54787 10.122 8.54787 10.4694 8.76137 10.6829L12.0531 13.9746L8.76137 17.2646C8.54787 17.4781 8.54787 17.8255 8.76137 18.039L9.92337 19.201C10.1369 19.4145 10.4843 19.4145 10.6978 19.201L13.9886 15.9092L17.2795 19.201C17.493 19.4145 17.8404 19.4145 18.0539 19.201L19.2159 18.039C19.4294 17.8255 19.4294 17.4781 19.2159 17.2646L15.9241 13.9746L19.2159 10.6829Z" fill="#E31E33" stroke="#E31E33"/>
</svg>
