<svg width="26" height="26" viewBox="0 0 26 26" fill="none" xmlns="http://www.w3.org/2000/svg">
<path d="M13 1.625C10.7502 1.625 8.551 2.29213 6.68039 3.54203C4.80978 4.79193 3.35182 6.56847 2.49088 8.64698C1.62993 10.7255 1.40467 13.0126 1.84357 15.2192C2.28248 17.4257 3.36584 19.4525 4.95667 21.0433C6.54749 22.6342 8.57432 23.7175 10.7809 24.1564C12.9874 24.5953 15.2745 24.3701 17.353 23.5091C19.4315 22.6482 21.2081 21.1902 22.458 19.3196C23.7079 17.449 24.375 15.2498 24.375 13C24.375 9.98316 23.1766 7.08989 21.0433 4.95666C18.9101 2.82343 16.0168 1.625 13 1.625ZM6.50001 14.625C6.17861 14.625 5.86443 14.5297 5.5972 14.3511C5.32997 14.1726 5.12169 13.9188 4.9987 13.6219C4.87571 13.3249 4.84353 12.9982 4.90623 12.683C4.96893 12.3678 5.1237 12.0782 5.35096 11.851C5.57822 11.6237 5.86776 11.4689 6.18298 11.4062C6.4982 11.3435 6.82494 11.3757 7.12187 11.4987C7.4188 11.6217 7.67259 11.83 7.85114 12.0972C8.0297 12.3644 8.12501 12.6786 8.12501 13C8.12501 13.431 7.9538 13.8443 7.64905 14.149C7.34431 14.4538 6.93098 14.625 6.50001 14.625ZM13 14.625C12.6786 14.625 12.3644 14.5297 12.0972 14.3511C11.83 14.1726 11.6217 13.9188 11.4987 13.6219C11.3757 13.3249 11.3435 12.9982 11.4062 12.683C11.4689 12.3678 11.6237 12.0782 11.851 11.851C12.0782 11.6237 12.3678 11.4689 12.683 11.4062C12.9982 11.3435 13.3249 11.3757 13.6219 11.4987C13.9188 11.6217 14.1726 11.83 14.3511 12.0972C14.5297 12.3644 14.625 12.6786 14.625 13C14.625 13.431 14.4538 13.8443 14.1491 14.149C13.8443 14.4538 13.431 14.625 13 14.625ZM19.5 14.625C19.1786 14.625 18.8644 14.5297 18.5972 14.3511C18.33 14.1726 18.1217 13.9188 17.9987 13.6219C17.8757 13.3249 17.8435 12.9982 17.9062 12.683C17.9689 12.3678 18.1237 12.0782 18.351 11.851C18.5782 11.6237 18.8678 11.4689 19.183 11.4062C19.4982 11.3435 19.8249 11.3757 20.1219 11.4987C20.4188 11.6217 20.6726 11.83 20.8511 12.0972C21.0297 12.3644 21.125 12.6786 21.125 13C21.125 13.431 20.9538 13.8443 20.6491 14.149C20.3443 14.4538 19.931 14.625 19.5 14.625Z" fill="#F29339"/>
</svg>
